<mxfile host="app.diagrams.net" modified="2023-05-20T14:05:57.023Z" agent="Mozilla/5.0 (Macintosh; Intel Mac OS X 10_15_7) AppleWebKit/537.36 (KHTML, like Gecko) Chrome/113.0.0.0 Safari/537.36" etag="oLft5IstEjtn7Qv9K5Cy" version="21.2.3" type="device">
  <diagram name="Page-1" id="5QgLz2A0alRJkuV2LV09">
    <mxGraphModel dx="909" dy="828" grid="1" gridSize="10" guides="1" tooltips="1" connect="1" arrows="1" fold="1" page="1" pageScale="1" pageWidth="850" pageHeight="1100" math="0" shadow="0">
      <root>
        <mxCell id="0" />
        <mxCell id="1" parent="0" />
        <mxCell id="Astyht97hov9KzwNR7VI-1" value="Users" style="verticalLabelPosition=bottom;sketch=0;html=1;fillColor=#282828;strokeColor=none;verticalAlign=top;pointerEvents=1;align=center;shape=mxgraph.cisco_safe.people_places_things_icons.icon9;" vertex="1" parent="1">
          <mxGeometry x="110" y="210" width="50" height="45" as="geometry" />
        </mxCell>
        <mxCell id="Astyht97hov9KzwNR7VI-3" value="Traffic" style="shape=image;html=1;verticalAlign=top;verticalLabelPosition=bottom;labelBackgroundColor=#ffffff;imageAspect=0;aspect=fixed;image=https://cdn1.iconfinder.com/data/icons/unicons-line-vol-2/24/chart-line-128.png;fillColor=#330000;strokeColor=#330000;" vertex="1" parent="1">
          <mxGeometry x="220" y="198.5" width="68" height="68" as="geometry" />
        </mxCell>
        <mxCell id="Astyht97hov9KzwNR7VI-4" value="Compute&lt;br&gt;" style="shape=image;html=1;verticalAlign=top;verticalLabelPosition=bottom;labelBackgroundColor=#ffffff;imageAspect=0;aspect=fixed;image=https://cdn1.iconfinder.com/data/icons/science-technology-outline-24-px/24/Computer_chip_integrated_circuit_memory_chip_microprocessor_processor_chip-128.png" vertex="1" parent="1">
          <mxGeometry x="340" y="193.5" width="78" height="78" as="geometry" />
        </mxCell>
        <mxCell id="Astyht97hov9KzwNR7VI-5" value="&lt;br&gt;&lt;br&gt;&lt;br&gt;&lt;br&gt;&lt;br&gt;&lt;br&gt;Storage" style="shape=datastore;whiteSpace=wrap;html=1;" vertex="1" parent="1">
          <mxGeometry x="470" y="203" width="60" height="60" as="geometry" />
        </mxCell>
        <mxCell id="Astyht97hov9KzwNR7VI-8" value="Scalability" style="swimlane;startSize=0;labelBackgroundColor=#FFFFFF;" vertex="1" parent="1">
          <mxGeometry x="80" y="170" width="490" height="140" as="geometry" />
        </mxCell>
        <mxCell id="Astyht97hov9KzwNR7VI-9" value="Flexibility" style="swimlane;startSize=0;labelBackgroundColor=default;" vertex="1" parent="1">
          <mxGeometry x="80" y="340" width="490" height="210" as="geometry" />
        </mxCell>
        <mxCell id="Astyht97hov9KzwNR7VI-10" value="Streaming" style="shape=image;html=1;verticalAlign=top;verticalLabelPosition=bottom;labelBackgroundColor=#ffffff;imageAspect=0;aspect=fixed;image=https://cdn1.iconfinder.com/data/icons/unicons-line-vol-2/24/chart-line-128.png" vertex="1" parent="Astyht97hov9KzwNR7VI-9">
          <mxGeometry x="61" y="70" width="28" height="28" as="geometry" />
        </mxCell>
        <mxCell id="Astyht97hov9KzwNR7VI-11" value="Batch" style="sketch=0;html=1;aspect=fixed;strokeColor=none;shadow=0;fillColor=#3B8DF1;verticalAlign=top;labelPosition=center;verticalLabelPosition=bottom;shape=mxgraph.gcp2.files" vertex="1" parent="Astyht97hov9KzwNR7VI-9">
          <mxGeometry x="110" y="64.35" width="40.52" height="39.3" as="geometry" />
        </mxCell>
        <mxCell id="Astyht97hov9KzwNR7VI-12" value="Geo" style="html=1;verticalLabelPosition=bottom;align=center;labelBackgroundColor=#ffffff;verticalAlign=top;strokeWidth=2;strokeColor=#0080F0;shadow=0;dashed=0;shape=mxgraph.ios7.icons.map;" vertex="1" parent="Astyht97hov9KzwNR7VI-9">
          <mxGeometry x="60" y="140" width="30" height="30" as="geometry" />
        </mxCell>
        <mxCell id="Astyht97hov9KzwNR7VI-13" value="Media" style="html=1;verticalLabelPosition=bottom;align=center;labelBackgroundColor=#ffffff;verticalAlign=top;strokeWidth=2;strokeColor=#0080F0;shadow=0;dashed=0;shape=mxgraph.ios7.icons.video_conversation;" vertex="1" parent="Astyht97hov9KzwNR7VI-9">
          <mxGeometry x="120.52" y="140" width="30" height="15" as="geometry" />
        </mxCell>
        <mxCell id="Astyht97hov9KzwNR7VI-15" value="Types of Data" style="text;html=1;strokeColor=none;fillColor=none;align=center;verticalAlign=middle;whiteSpace=wrap;rounded=0;fontStyle=1" vertex="1" parent="Astyht97hov9KzwNR7VI-9">
          <mxGeometry x="60" y="30" width="89" height="30" as="geometry" />
        </mxCell>
        <mxCell id="Astyht97hov9KzwNR7VI-16" value="&lt;b&gt;Capabilities&lt;/b&gt;" style="text;strokeColor=none;align=center;fillColor=none;html=1;verticalAlign=middle;whiteSpace=wrap;rounded=0;" vertex="1" parent="Astyht97hov9KzwNR7VI-9">
          <mxGeometry x="315" y="30.00000000000002" width="60" height="30" as="geometry" />
        </mxCell>
        <mxCell id="Astyht97hov9KzwNR7VI-26" value="Evolving&lt;br&gt;Mission" style="shape=image;html=1;verticalAlign=top;verticalLabelPosition=bottom;labelBackgroundColor=#ffffff;imageAspect=0;aspect=fixed;image=https://cdn0.iconfinder.com/data/icons/game-asset-1/24/target-128.png" vertex="1" parent="Astyht97hov9KzwNR7VI-9">
          <mxGeometry x="270" y="80" width="50" height="50" as="geometry" />
        </mxCell>
        <mxCell id="Astyht97hov9KzwNR7VI-27" value="Changing&lt;br&gt;Environment" style="shape=image;html=1;verticalAlign=top;verticalLabelPosition=bottom;labelBackgroundColor=#ffffff;imageAspect=0;aspect=fixed;image=https://cdn0.iconfinder.com/data/icons/web-development-and-studio/512/121_Alpine_Arctic_Canada_Pine_Trees_Scandinavia-128.png" vertex="1" parent="Astyht97hov9KzwNR7VI-9">
          <mxGeometry x="360" y="81" width="48" height="48" as="geometry" />
        </mxCell>
        <mxCell id="Astyht97hov9KzwNR7VI-28" value="Software" style="verticalLabelPosition=bottom;html=1;verticalAlign=top;align=center;strokeColor=none;fillColor=#00BEF2;shape=mxgraph.azure.computer;pointerEvents=1;" vertex="1" parent="1">
          <mxGeometry x="160" y="710" width="50" height="45" as="geometry" />
        </mxCell>
        <mxCell id="Astyht97hov9KzwNR7VI-29" value="Data" style="html=1;verticalLabelPosition=bottom;align=center;labelBackgroundColor=#ffffff;verticalAlign=top;strokeWidth=2;strokeColor=#0080F0;shadow=0;dashed=0;shape=mxgraph.ios7.icons.data;" vertex="1" parent="1">
          <mxGeometry x="250" y="710" width="40" height="40" as="geometry" />
        </mxCell>
        <mxCell id="Astyht97hov9KzwNR7VI-30" value="Infrastructure" style="shape=image;html=1;verticalAlign=top;verticalLabelPosition=bottom;labelBackgroundColor=#ffffff;imageAspect=0;aspect=fixed;image=https://cdn4.iconfinder.com/data/icons/internet-networking-and-communication-glyph-24/24/Database_network_server_server_connection_server_storage_web_hosting-128.png" vertex="1" parent="1">
          <mxGeometry x="330" y="705" width="55" height="55" as="geometry" />
        </mxCell>
        <mxCell id="Astyht97hov9KzwNR7VI-31" value="Standards" style="sketch=0;pointerEvents=1;shadow=0;dashed=0;html=1;strokeColor=none;labelPosition=center;verticalLabelPosition=bottom;verticalAlign=top;align=center;fillColor=#505050;shape=mxgraph.mscae.intune.certificate" vertex="1" parent="1">
          <mxGeometry x="425" y="708" width="50" height="49" as="geometry" />
        </mxCell>
      </root>
    </mxGraphModel>
  </diagram>
</mxfile>
